<svg width="86" height="18" viewBox="0 0 86 18" fill="none" xmlns="http://www.w3.org/2000/svg">
<path d="M0.584 17V0.199999H3.752V17H0.584ZM7.00813 17V5.096H9.98413V6.656H10.4161C10.6081 6.24 10.9681 5.848 11.4961 5.48C12.0241 5.096 12.8241 4.904 13.8961 4.904C14.8241 4.904 15.6321 5.12 16.3201 5.552C17.0241 5.968 17.5681 6.552 17.9521 7.304C18.3361 8.04 18.5281 8.904 18.5281 9.896V17H15.5041V10.136C15.5041 9.24 15.2801 8.568 14.8321 8.12C14.4001 7.672 13.7761 7.448 12.9601 7.448C12.0321 7.448 11.3121 7.76 10.8001 8.384C10.2881 8.992 10.0321 9.848 10.0321 10.952V17H7.00813ZM27.2212 17.336C26.0372 17.336 24.9892 17.088 24.0772 16.592C23.1812 16.08 22.4772 15.368 21.9652 14.456C21.4692 13.528 21.2212 12.44 21.2212 11.192V10.904C21.2212 9.656 21.4692 8.576 21.9652 7.664C22.4612 6.736 23.1572 6.024 24.0532 5.528C24.9492 5.016 25.9892 4.76 27.1732 4.76C28.3412 4.76 29.3572 5.024 30.2212 5.552C31.0852 6.064 31.7572 6.784 32.2372 7.712C32.7172 8.624 32.9572 9.688 32.9572 10.904V11.936H24.2932C24.3252 12.752 24.6292 13.416 25.2052 13.928C25.7812 14.44 26.4852 14.696 27.3172 14.696C28.1652 14.696 28.7892 14.512 29.1892 14.144C29.5892 13.776 29.8932 13.368 30.1012 12.92L32.5732 14.216C32.3492 14.632 32.0212 15.088 31.5892 15.584C31.1732 16.064 30.6132 16.48 29.9092 16.832C29.2052 17.168 28.3092 17.336 27.2212 17.336ZM24.3172 9.68H29.8852C29.8212 8.992 29.5412 8.44 29.0452 8.024C28.5652 7.608 27.9332 7.4 27.1492 7.4C26.3332 7.4 25.6852 7.608 25.2052 8.024C24.7252 8.44 24.4292 8.992 24.3172 9.68ZM40.1848 17.192C39.2568 17.192 38.4408 16.984 37.7368 16.568C37.0488 16.136 36.5128 15.544 36.1288 14.792C35.7448 14.04 35.5527 13.176 35.5527 12.2V5.096H38.5768V11.96C38.5768 12.856 38.7928 13.528 39.2248 13.976C39.6728 14.424 40.3048 14.648 41.1208 14.648C42.0488 14.648 42.7688 14.344 43.2808 13.736C43.7928 13.112 44.0488 12.248 44.0488 11.144V5.096H47.0728V17H44.0968V15.44H43.6648C43.4728 15.84 43.1128 16.232 42.5848 16.616C42.0568 17 41.2568 17.192 40.1848 17.192ZM50.4378 17V5.096H53.4138V6.44H53.8458C54.0218 5.96 54.3098 5.608 54.7098 5.384C55.1258 5.16 55.6058 5.048 56.1498 5.048H57.5898V7.736H56.1018C55.3338 7.736 54.7018 7.944 54.2058 8.36C53.7098 8.76 53.4618 9.384 53.4618 10.232V17H50.4378ZM65.1956 17.336C64.0116 17.336 62.9476 17.096 62.0036 16.616C61.0596 16.136 60.3156 15.44 59.7716 14.528C59.2276 13.616 58.9556 12.52 58.9556 11.24V10.856C58.9556 9.576 59.2276 8.48 59.7716 7.568C60.3156 6.656 61.0596 5.96 62.0036 5.48C62.9476 5 64.0116 4.76 65.1956 4.76C66.3796 4.76 67.4436 5 68.3876 5.48C69.3316 5.96 70.0756 6.656 70.6196 7.568C71.1636 8.48 71.4356 9.576 71.4356 10.856V11.24C71.4356 12.52 71.1636 13.616 70.6196 14.528C70.0756 15.44 69.3316 16.136 68.3876 16.616C67.4436 17.096 66.3796 17.336 65.1956 17.336ZM65.1956 14.648C66.1236 14.648 66.8916 14.352 67.4996 13.76C68.1076 13.152 68.4116 12.288 68.4116 11.168V10.928C68.4116 9.808 68.1076 8.952 67.4996 8.36C66.9076 7.752 66.1396 7.448 65.1956 7.448C64.2676 7.448 63.4996 7.752 62.8916 8.36C62.2836 8.952 61.9796 9.808 61.9796 10.928V11.168C61.9796 12.288 62.2836 13.152 62.8916 13.76C63.4996 14.352 64.2676 14.648 65.1956 14.648ZM74.2269 17V5.096H77.2029V6.656H77.6349C77.8269 6.24 78.1869 5.848 78.7149 5.48C79.2429 5.096 80.0429 4.904 81.1149 4.904C82.0429 4.904 82.8509 5.12 83.5389 5.552C84.2429 5.968 84.7869 6.552 85.1709 7.304C85.5549 8.04 85.7469 8.904 85.7469 9.896V17H82.7229V10.136C82.7229 9.24 82.4989 8.568 82.0509 8.12C81.6189 7.672 80.9949 7.448 80.1789 7.448C79.2509 7.448 78.5309 7.76 78.0189 8.384C77.5069 8.992 77.2509 9.848 77.2509 10.952V17H74.2269Z" fill="#6118FC"/>
</svg>
